# Blender v2.91.2 OBJ File: 'untitled.blend'
# www.blender.org
mtllib Branch.mtl
o Cylinder_Cylinder.001
v 0.000000 3.542730 -0.000000
v 0.000000 -1.000000 -1.000000
v 0.000000 3.542730 -0.584091
v 0.195090 -1.000000 -0.980785
v 0.113950 3.542730 -0.572867
v 0.382683 -1.000000 -0.923880
v 0.223522 3.542730 -0.539629
v 0.555570 -1.000000 -0.831470
v 0.324503 3.542730 -0.485654
v 0.707107 -1.000000 -0.707107
v 0.413014 3.542730 -0.413014
v 0.831470 -1.000000 -0.555570
v 0.485654 3.542730 -0.324503
v 0.923880 -1.000000 -0.382683
v 0.539629 3.542730 -0.223522
v 0.980785 -1.000000 -0.195090
v 0.572867 3.542730 -0.113951
v 1.000000 -1.000000 -0.000000
v 0.584091 3.542730 -0.000000
v 0.980785 -1.000000 0.195090
v 0.572867 3.542730 0.113950
v 0.923880 -1.000000 0.382683
v 0.539629 3.542730 0.223522
v 0.831470 -1.000000 0.555570
v 0.485654 3.542730 0.324503
v 0.707107 -1.000000 0.707107
v 0.413014 3.542730 0.413014
v 0.555570 -1.000000 0.831470
v 0.324503 3.542730 0.485653
v 0.382683 -1.000000 0.923880
v 0.223522 3.542730 0.539629
v 0.195090 -1.000000 0.980785
v 0.113950 3.542730 0.572867
v -0.000000 -1.000000 1.000000
v -0.000000 3.542730 0.584090
v -0.195091 -1.000000 0.980785
v -0.113951 3.542730 0.572867
v -0.382684 -1.000000 0.923879
v -0.223522 3.542730 0.539629
v -0.555571 -1.000000 0.831469
v -0.324504 3.542730 0.485653
v -0.707107 -1.000000 0.707106
v -0.413015 3.542730 0.413014
v -0.831470 -1.000000 0.555570
v -0.485654 3.542730 0.324503
v -0.923880 -1.000000 0.382683
v -0.539629 3.542730 0.223521
v -0.980785 -1.000000 0.195089
v -0.572867 3.542730 0.113950
v -1.000000 -1.000000 -0.000001
v -0.584090 3.542730 -0.000001
v -0.980785 -1.000000 -0.195091
v -0.572867 3.542730 -0.113951
v -0.923879 -1.000000 -0.382684
v -0.539629 3.542730 -0.223522
v -0.831469 -1.000000 -0.555571
v -0.485653 3.542730 -0.324504
v -0.707106 -1.000000 -0.707108
v -0.413014 3.542730 -0.413015
v -0.555569 -1.000000 -0.831470
v -0.324503 3.542730 -0.485654
v -0.382682 -1.000000 -0.923880
v -0.223521 3.542730 -0.539630
v -0.195089 -1.000000 -0.980786
v -0.113949 3.542730 -0.572868
v 0.144437 -1.359296 -0.726132
v 0.000000 -1.622841 -0.000000
v 0.000000 -1.359296 -0.740358
v 0.283323 -1.359296 -0.684002
v 0.411321 -1.359296 -0.615585
v 0.523512 -1.359296 -0.523512
v 0.615585 -1.359296 -0.411321
v 0.684002 -1.359296 -0.283323
v 0.726132 -1.359296 -0.144437
v 0.740358 -1.359296 -0.000000
v 0.726132 -1.359296 0.144437
v 0.684002 -1.359296 0.283323
v 0.615585 -1.359296 0.411321
v 0.523512 -1.359296 0.523512
v 0.411321 -1.359296 0.615585
v 0.283323 -1.359296 0.684002
v 0.144437 -1.359296 0.726132
v -0.000000 -1.359296 0.740358
v -0.144437 -1.359296 0.726132
v -0.283323 -1.359296 0.684001
v -0.411321 -1.359296 0.615585
v -0.523512 -1.359296 0.523512
v -0.615585 -1.359296 0.411320
v -0.684002 -1.359296 0.283322
v -0.726132 -1.359296 0.144436
v -0.740358 -1.359296 -0.000001
v -0.726132 -1.359296 -0.144438
v -0.684001 -1.359296 -0.283324
v -0.615585 -1.359296 -0.411322
v -0.523511 -1.359296 -0.523513
v -0.411320 -1.359296 -0.615586
v -0.283322 -1.359296 -0.684002
v -0.144436 -1.359296 -0.726133
v 0.072717 -1.577618 -0.365571
v 0.000000 -1.577618 -0.372733
v 0.142639 -1.577618 -0.344360
v 0.207079 -1.577618 -0.309916
v 0.263562 -1.577618 -0.263562
v 0.309916 -1.577618 -0.207079
v 0.344360 -1.577618 -0.142639
v 0.365571 -1.577618 -0.072717
v 0.372733 -1.577618 -0.000000
v 0.365571 -1.577618 0.072716
v 0.344360 -1.577618 0.142638
v 0.309916 -1.577618 0.207079
v 0.263562 -1.577618 0.263562
v 0.207079 -1.577618 0.309916
v 0.142639 -1.577618 0.344360
v 0.072717 -1.577618 0.365571
v -0.000000 -1.577618 0.372732
v -0.072717 -1.577618 0.365570
v -0.142639 -1.577618 0.344360
v -0.207079 -1.577618 0.309916
v -0.263562 -1.577618 0.263561
v -0.309916 -1.577618 0.207079
v -0.344360 -1.577618 0.142638
v -0.365571 -1.577618 0.072716
v -0.372733 -1.577618 -0.000001
v -0.365571 -1.577618 -0.072717
v -0.344360 -1.577618 -0.142639
v -0.309916 -1.577618 -0.207080
v -0.263561 -1.577618 -0.263562
v -0.207079 -1.577618 -0.309916
v -0.142638 -1.577618 -0.344361
v -0.072716 -1.577618 -0.365571
vt 0.875000 0.500000
vt 0.843750 0.500000
vt 0.843750 0.500000
vt 0.875000 0.500000
vt 0.250000 0.250000
vt 0.296822 0.485388
vt 0.250000 0.490000
vt 1.000000 0.500000
vt 1.000000 1.000000
vt 0.968750 1.000000
vt 0.968750 0.500000
vt 0.031250 0.500000
vt 0.000000 0.500000
vt 0.000000 0.500000
vt 0.031250 0.500000
vt 0.341844 0.471731
vt 0.937500 1.000000
vt 0.937500 0.500000
vt 0.625000 0.500000
vt 0.593750 0.500000
vt 0.593750 0.500000
vt 0.625000 0.500000
vt 0.383337 0.449553
vt 0.906250 1.000000
vt 0.906250 0.500000
vt 0.375000 0.500000
vt 0.343750 0.500000
vt 0.343750 0.500000
vt 0.375000 0.500000
vt 0.419706 0.419706
vt 0.875000 1.000000
vt 0.125000 0.500000
vt 0.093750 0.500000
vt 0.093750 0.500000
vt 0.125000 0.500000
vt 0.449553 0.383337
vt 0.843750 1.000000
vt 0.937500 0.500000
vt 0.968750 0.500000
vt 0.471731 0.341844
vt 0.812500 1.000000
vt 0.812500 0.500000
vt 0.718750 0.500000
vt 0.687500 0.500000
vt 0.687500 0.500000
vt 0.718750 0.500000
vt 0.485388 0.296822
vt 0.781250 1.000000
vt 0.781250 0.500000
vt 0.468750 0.500000
vt 0.437500 0.500000
vt 0.437500 0.500000
vt 0.468750 0.500000
vt 0.490000 0.250000
vt 0.750000 1.000000
vt 0.750000 0.500000
vt 0.218750 0.500000
vt 0.187500 0.500000
vt 0.187500 0.500000
vt 0.218750 0.500000
vt 0.485388 0.203178
vt 0.718750 1.000000
vt 0.781250 0.500000
vt 0.812500 0.500000
vt 0.471731 0.158156
vt 0.687500 1.000000
vt 0.562500 0.500000
vt 0.531250 0.500000
vt 0.531250 0.500000
vt 0.562500 0.500000
vt 0.449553 0.116663
vt 0.656250 1.000000
vt 0.656250 0.500000
vt 0.312500 0.500000
vt 0.281250 0.500000
vt 0.281250 0.500000
vt 0.312500 0.500000
vt 0.419706 0.080294
vt 0.625000 1.000000
vt 0.062500 0.500000
vt 0.062500 0.500000
vt 0.383337 0.050447
vt 0.593750 1.000000
vt 0.906250 0.500000
vt 0.341844 0.028269
vt 0.562500 1.000000
vt 0.656250 0.500000
vt 0.296822 0.014612
vt 0.531250 1.000000
vt 0.406250 0.500000
vt 0.406250 0.500000
vt 0.250000 0.010000
vt 0.500000 1.000000
vt 0.500000 0.500000
vt 0.156250 0.500000
vt 0.156250 0.500000
vt 0.203178 0.014612
vt 0.468750 1.000000
vt 0.750000 0.500000
vt 0.158156 0.028269
vt 0.437500 1.000000
vt 0.500000 0.500000
vt 0.116663 0.050447
vt 0.406250 1.000000
vt 0.250000 0.500000
vt 0.250000 0.500000
vt 0.080294 0.080294
vt 0.375000 1.000000
vt 0.050447 0.116663
vt 0.343750 1.000000
vt 1.000000 0.500000
vt 0.028269 0.158156
vt 0.312500 1.000000
vt 0.014611 0.203179
vt 0.281250 1.000000
vt 0.010000 0.250000
vt 0.250000 1.000000
vt 0.014612 0.296822
vt 0.218750 1.000000
vt 0.028269 0.341844
vt 0.187500 1.000000
vt 0.050447 0.383337
vt 0.156250 1.000000
vt 0.080295 0.419706
vt 0.125000 1.000000
vt 0.116663 0.449553
vt 0.093750 1.000000
vt 0.158156 0.471731
vt 0.062500 1.000000
vt 0.203179 0.485389
vt 0.031250 1.000000
vt 0.000000 1.000000
vt 0.187500 0.500000
vt 0.218750 0.500000
vt 0.406250 0.500000
vt 0.437500 0.500000
vt 0.625000 0.500000
vt 0.656250 0.500000
vt 0.843750 0.500000
vt 0.875000 0.500000
vt 0.250000 0.500000
vt 0.000000 0.500000
vt 0.031250 0.500000
vt 0.468750 0.500000
vt 0.687500 0.500000
vt 0.062500 0.500000
vt 0.906250 0.500000
vt 0.281250 0.500000
vt 0.500000 0.500000
vt 0.718750 0.500000
vt 0.093750 0.500000
vt 0.937500 0.500000
vt 0.312500 0.500000
vt 0.531250 0.500000
vt 0.750000 0.500000
vt 0.125000 0.500000
vt 0.968750 0.500000
vt 0.343750 0.500000
vt 0.562500 0.500000
vt 0.781250 0.500000
vt 0.156250 0.500000
vt 1.000000 0.500000
vt 0.375000 0.500000
vt 0.593750 0.500000
vt 0.812500 0.500000
vt 0.593750 0.500000
vt 0.812500 0.500000
vt 0.187500 0.500000
vt 0.406250 0.500000
vt 0.625000 0.500000
vt 0.843750 0.500000
vt 0.218750 0.500000
vt 0.437500 0.500000
vt 0.656250 0.500000
vt 0.875000 0.500000
vt 0.250000 0.500000
vt 0.031250 0.500000
vt 0.468750 0.500000
vt 0.687500 0.500000
vt 0.062500 0.500000
vt 0.906250 0.500000
vt 0.281250 0.500000
vt 0.500000 0.500000
vt 0.718750 0.500000
vt 0.093750 0.500000
vt 0.937500 0.500000
vt 0.312500 0.500000
vt 0.531250 0.500000
vt 0.750000 0.500000
vt 0.125000 0.500000
vt 0.968750 0.500000
vt 0.343750 0.500000
vt 0.562500 0.500000
vt 0.781250 0.500000
vt 0.156250 0.500000
vt 1.000000 0.500000
vt 0.375000 0.500000
vn 0.6276 -0.5839 -0.5150
vn 0.0000 1.0000 0.0000
vn 0.0976 0.0907 -0.9911
vn -0.0796 -0.5839 -0.8079
vn 0.2891 0.0907 -0.9530
vn 0.5150 -0.5839 0.6276
vn 0.4695 0.0907 -0.8783
vn -0.6276 -0.5839 0.5150
vn 0.6318 0.0907 -0.7698
vn -0.5150 -0.5839 -0.6276
vn 0.7698 0.0907 -0.6318
vn 0.2357 -0.5839 -0.7769
vn 0.8783 0.0907 -0.4695
vn 0.7769 -0.5839 0.2357
vn 0.9530 0.0907 -0.2891
vn -0.2357 -0.5839 0.7769
vn 0.9911 0.0907 -0.0976
vn -0.7769 -0.5839 -0.2357
vn 0.9911 0.0907 0.0976
vn 0.7769 -0.5839 -0.2357
vn 0.9530 0.0907 0.2891
vn 0.2357 -0.5839 0.7769
vn 0.8783 0.0907 0.4695
vn -0.7769 -0.5839 0.2357
vn 0.7698 0.0907 0.6318
vn -0.2357 -0.5839 -0.7769
vn 0.6318 0.0907 0.7698
vn 0.5150 -0.5839 -0.6276
vn 0.4695 0.0907 0.8783
vn 0.6276 -0.5839 0.5150
vn 0.2891 0.0907 0.9530
vn -0.5150 -0.5839 0.6276
vn 0.0976 0.0907 0.9911
vn -0.6276 -0.5839 -0.5150
vn -0.0976 0.0907 0.9911
vn 0.8079 -0.5839 0.0796
vn -0.2891 0.0907 0.9530
vn -0.0796 -0.5839 0.8079
vn -0.4695 0.0907 0.8783
vn -0.8079 -0.5839 -0.0796
vn -0.6318 0.0907 0.7698
vn 0.7160 -0.5839 -0.3827
vn -0.7698 0.0907 0.6318
vn 0.0796 -0.5839 -0.8079
vn -0.8783 0.0907 0.4695
vn 0.3827 -0.5839 0.7160
vn -0.9530 0.0907 0.2891
vn -0.7160 -0.5839 0.3827
vn -0.9911 0.0907 0.0976
vn -0.3827 -0.5839 -0.7160
vn -0.9911 0.0907 -0.0976
vn 0.3827 -0.5839 -0.7160
vn -0.9530 0.0907 -0.2891
vn 0.7160 -0.5839 0.3827
vn -0.8783 0.0907 -0.4695
vn -0.3827 -0.5839 0.7160
vn -0.7698 0.0907 -0.6318
vn -0.7160 -0.5839 -0.3827
vn -0.6318 0.0907 -0.7698
vn 0.8079 -0.5839 -0.0796
vn -0.4695 0.0907 -0.8783
vn 0.0796 -0.5839 0.8079
vn -0.2891 0.0907 -0.9530
vn -0.8079 -0.5839 0.0796
vn -0.0976 0.0907 -0.9911
vn -0.4904 -0.8587 -0.1488
vn -0.2416 -0.8587 0.4519
vn 0.3961 -0.8587 0.3251
vn 0.3961 -0.8587 -0.3251
vn -0.5100 -0.8587 -0.0502
vn -0.0502 -0.8587 -0.5100
vn -0.1488 -0.8587 0.4904
vn 0.4519 -0.8587 0.2416
vn -0.1488 -0.8587 -0.4904
vn 0.3251 -0.8587 -0.3961
vn -0.5100 -0.8587 0.0502
vn -0.0502 -0.8587 0.5100
vn 0.4904 -0.8587 0.1488
vn -0.2416 -0.8587 -0.4519
vn 0.2416 -0.8587 -0.4519
vn -0.4904 -0.8587 0.1488
vn 0.0502 -0.8587 0.5100
vn 0.5100 -0.8587 0.0502
vn -0.3251 -0.8587 -0.3961
vn 0.1488 -0.8587 -0.4904
vn -0.4519 -0.8587 0.2416
vn 0.1488 -0.8587 0.4904
vn 0.5100 -0.8587 -0.0502
vn -0.3961 -0.8587 -0.3251
vn 0.0502 -0.8587 -0.5100
vn -0.3961 -0.8587 0.3251
vn 0.2416 -0.8587 0.4519
vn 0.4904 -0.8587 -0.1488
vn -0.4519 -0.8587 -0.2416
vn -0.3251 -0.8587 0.3961
vn 0.3251 -0.8587 0.3961
vn 0.4519 -0.8587 -0.2416
vn 0.0570 -0.9926 0.1067
vn 0.1158 -0.9927 -0.0351
vn -0.1067 -0.9926 -0.0570
vn -0.0768 -0.9926 0.0936
vn 0.0768 -0.9927 0.0935
vn 0.1067 -0.9927 -0.0570
vn -0.1158 -0.9927 -0.0351
vn -0.0570 -0.9927 0.1067
vn 0.0935 -0.9926 0.0768
vn 0.0935 -0.9926 -0.0768
vn -0.1204 -0.9927 -0.0119
vn -0.0119 -0.9926 -0.1204
vn -0.0351 -0.9927 0.1158
vn 0.1067 -0.9926 0.0570
vn -0.0351 -0.9927 -0.1158
vn 0.0768 -0.9926 -0.0936
vn -0.1204 -0.9927 0.0119
vn -0.0119 -0.9927 0.1204
vn 0.1158 -0.9927 0.0351
vn -0.0570 -0.9926 -0.1067
vn 0.0570 -0.9927 -0.1067
vn -0.1158 -0.9927 0.0351
vn 0.0119 -0.9927 0.1204
vn 0.1204 -0.9927 0.0119
vn -0.0768 -0.9927 -0.0935
vn 0.0351 -0.9926 -0.1158
vn -0.1067 -0.9927 0.0570
vn 0.0351 -0.9927 0.1158
vn 0.1204 -0.9927 -0.0119
vn -0.0935 -0.9927 -0.0768
vn 0.0119 -0.9927 -0.1204
vn -0.0935 -0.9926 0.0768
usemtl None
s off
f 10/1/1 12/2/1 72/3/1 71/4/1
f 1/5/2 5/6/2 3/7/2
f 2/8/3 3/9/3 5/10/3 4/11/3
f 64/12/4 2/13/4 68/14/4 98/15/4
f 1/5/2 7/16/2 5/6/2
f 4/11/5 5/10/5 7/17/5 6/18/5
f 26/19/6 28/20/6 80/21/6 79/22/6
f 1/5/2 9/23/2 7/16/2
f 6/18/7 7/17/7 9/24/7 8/25/7
f 42/26/8 44/27/8 88/28/8 87/29/8
f 1/5/2 11/30/2 9/23/2
f 8/25/9 9/24/9 11/31/9 10/1/9
f 58/32/10 60/33/10 96/34/10 95/35/10
f 1/5/2 13/36/2 11/30/2
f 10/1/11 11/31/11 13/37/11 12/2/11
f 4/11/12 6/18/12 69/38/12 66/39/12
f 1/5/2 15/40/2 13/36/2
f 12/2/13 13/37/13 15/41/13 14/42/13
f 20/43/14 22/44/14 77/45/14 76/46/14
f 1/5/2 17/47/2 15/40/2
f 14/42/15 15/41/15 17/48/15 16/49/15
f 36/50/16 38/51/16 85/52/16 84/53/16
f 1/5/2 19/54/2 17/47/2
f 16/49/17 17/48/17 19/55/17 18/56/17
f 52/57/18 54/58/18 93/59/18 92/60/18
f 1/5/2 21/61/2 19/54/2
f 18/56/19 19/55/19 21/62/19 20/43/19
f 14/42/20 16/49/20 74/63/20 73/64/20
f 1/5/2 23/65/2 21/61/2
f 20/43/21 21/62/21 23/66/21 22/44/21
f 30/67/22 32/68/22 82/69/22 81/70/22
f 1/5/2 25/71/2 23/65/2
f 22/44/23 23/66/23 25/72/23 24/73/23
f 46/74/24 48/75/24 90/76/24 89/77/24
f 1/5/2 27/78/2 25/71/2
f 24/73/25 25/72/25 27/79/25 26/19/25
f 62/80/26 64/12/26 98/15/26 97/81/26
f 1/5/2 29/82/2 27/78/2
f 26/19/27 27/79/27 29/83/27 28/20/27
f 8/25/28 10/1/28 71/4/28 70/84/28
f 1/5/2 31/85/2 29/82/2
f 28/20/29 29/83/29 31/86/29 30/67/29
f 24/73/30 26/19/30 79/22/30 78/87/30
f 1/5/2 33/88/2 31/85/2
f 30/67/31 31/86/31 33/89/31 32/68/31
f 40/90/32 42/26/32 87/29/32 86/91/32
f 1/5/2 35/92/2 33/88/2
f 32/68/33 33/89/33 35/93/33 34/94/33
f 56/95/34 58/32/34 95/35/34 94/96/34
f 1/5/2 37/97/2 35/92/2
f 34/94/35 35/93/35 37/98/35 36/50/35
f 18/56/36 20/43/36 76/46/36 75/99/36
f 1/5/2 39/100/2 37/97/2
f 36/50/37 37/98/37 39/101/37 38/51/37
f 34/94/38 36/50/38 84/53/38 83/102/38
f 1/5/2 41/103/2 39/100/2
f 38/51/39 39/101/39 41/104/39 40/90/39
f 50/105/40 52/57/40 92/60/40 91/106/40
f 1/5/2 43/107/2 41/103/2
f 40/90/41 41/104/41 43/108/41 42/26/41
f 12/2/42 14/42/42 73/64/42 72/3/42
f 1/5/2 45/109/2 43/107/2
f 42/26/43 43/108/43 45/110/43 44/27/43
f 2/8/44 4/11/44 66/39/44 68/111/44
f 1/5/2 47/112/2 45/109/2
f 44/27/45 45/110/45 47/113/45 46/74/45
f 28/20/46 30/67/46 81/70/46 80/21/46
f 1/5/2 49/114/2 47/112/2
f 46/74/47 47/113/47 49/115/47 48/75/47
f 44/27/48 46/74/48 89/77/48 88/28/48
f 1/5/2 51/116/2 49/114/2
f 48/75/49 49/115/49 51/117/49 50/105/49
f 60/33/50 62/80/50 97/81/50 96/34/50
f 1/5/2 53/118/2 51/116/2
f 50/105/51 51/117/51 53/119/51 52/57/51
f 6/18/52 8/25/52 70/84/52 69/38/52
f 1/5/2 55/120/2 53/118/2
f 52/57/53 53/119/53 55/121/53 54/58/53
f 22/44/54 24/73/54 78/87/54 77/45/54
f 1/5/2 57/122/2 55/120/2
f 54/58/55 55/121/55 57/123/55 56/95/55
f 38/51/56 40/90/56 86/91/56 85/52/56
f 1/5/2 59/124/2 57/122/2
f 56/95/57 57/123/57 59/125/57 58/32/57
f 54/58/58 56/95/58 94/96/58 93/59/58
f 1/5/2 61/126/2 59/124/2
f 58/32/59 59/125/59 61/127/59 60/33/59
f 16/49/60 18/56/60 75/99/60 74/63/60
f 1/5/2 63/128/2 61/126/2
f 60/33/61 61/127/61 63/129/61 62/80/61
f 32/68/62 34/94/62 83/102/62 82/69/62
f 1/5/2 65/130/2 63/128/2
f 62/80/63 63/129/63 65/131/63 64/12/63
f 48/75/64 50/105/64 91/106/64 90/76/64
f 1/5/2 3/7/2 65/130/2
f 64/12/65 65/131/65 3/132/65 2/13/65
f 92/60/66 93/59/66 125/133/66 124/134/66
f 85/52/67 86/91/67 118/135/67 117/136/67
f 78/87/68 79/22/68 111/137/68 110/138/68
f 71/4/69 72/3/69 104/139/69 103/140/69
f 91/106/70 92/60/70 124/134/70 123/141/70
f 98/15/71 68/14/71 100/142/71 130/143/71
f 84/53/72 85/52/72 117/136/72 116/144/72
f 77/45/73 78/87/73 110/138/73 109/145/73
f 97/81/74 98/15/74 130/143/74 129/146/74
f 70/84/75 71/4/75 103/140/75 102/147/75
f 90/76/76 91/106/76 123/141/76 122/148/76
f 83/102/77 84/53/77 116/144/77 115/149/77
f 76/46/78 77/45/78 109/145/78 108/150/78
f 96/34/79 97/81/79 129/146/79 128/151/79
f 69/38/80 70/84/80 102/147/80 101/152/80
f 89/77/81 90/76/81 122/148/81 121/153/81
f 82/69/82 83/102/82 115/149/82 114/154/82
f 75/99/83 76/46/83 108/150/83 107/155/83
f 95/35/84 96/34/84 128/151/84 127/156/84
f 66/39/85 69/38/85 101/152/85 99/157/85
f 88/28/86 89/77/86 121/153/86 120/158/86
f 81/70/87 82/69/87 114/154/87 113/159/87
f 74/63/88 75/99/88 107/155/88 106/160/88
f 94/96/89 95/35/89 127/156/89 126/161/89
f 68/111/90 66/39/90 99/157/90 100/162/90
f 87/29/91 88/28/91 120/158/91 119/163/91
f 80/21/92 81/70/92 113/159/92 112/164/92
f 73/64/93 74/63/93 106/160/93 105/165/93
f 93/59/94 94/96/94 126/161/94 125/133/94
f 86/91/95 87/29/95 119/163/95 118/135/95
f 79/22/96 80/21/96 112/164/96 111/137/96
f 72/3/97 73/64/97 105/165/97 104/139/97
f 112/164/98 113/159/98 67/166/98
f 105/165/99 106/160/99 67/167/99
f 125/133/100 126/161/100 67/168/100
f 118/135/101 119/163/101 67/169/101
f 111/137/102 112/164/102 67/170/102
f 104/139/103 105/165/103 67/171/103
f 124/134/104 125/133/104 67/172/104
f 117/136/105 118/135/105 67/173/105
f 110/138/106 111/137/106 67/174/106
f 103/140/107 104/139/107 67/175/107
f 123/141/108 124/134/108 67/176/108
f 130/143/109 100/142/109 67/177/109
f 116/144/110 117/136/110 67/178/110
f 109/145/111 110/138/111 67/179/111
f 129/146/112 130/143/112 67/180/112
f 102/147/113 103/140/113 67/181/113
f 122/148/114 123/141/114 67/182/114
f 115/149/115 116/144/115 67/183/115
f 108/150/116 109/145/116 67/184/116
f 128/151/117 129/146/117 67/185/117
f 101/152/118 102/147/118 67/186/118
f 121/153/119 122/148/119 67/187/119
f 114/154/120 115/149/120 67/188/120
f 107/155/121 108/150/121 67/189/121
f 127/156/122 128/151/122 67/190/122
f 99/157/123 101/152/123 67/191/123
f 120/158/124 121/153/124 67/192/124
f 113/159/125 114/154/125 67/193/125
f 106/160/126 107/155/126 67/194/126
f 126/161/127 127/156/127 67/195/127
f 100/162/128 99/157/128 67/196/128
f 119/163/129 120/158/129 67/197/129
